<svg width="22" height="22" viewBox="0 0 22 22" fill="none" xmlns="http://www.w3.org/2000/svg">
<g clip-path="url(#clip0_341_173)">
<path d="M11.4023 21.2217C17.2013 21.2217 21.9023 16.5207 21.9023 10.7217C21.9023 4.92269 17.2013 0.22168 11.4023 0.22168C5.60335 0.22168 0.902344 4.92269 0.902344 10.7217C0.908957 16.5179 5.6061 21.2151 11.4023 21.2217ZM11.4023 0.97168C16.7871 0.97168 21.1523 5.3369 21.1523 10.7217C21.1523 16.1065 16.7871 20.4717 11.4023 20.4717C6.01757 20.4717 1.65234 16.1065 1.65234 10.7217C1.65854 5.33947 6.02014 0.977879 11.4023 0.97168Z" fill="#464646"/>
<path d="M11.4023 19.7217C16.3729 19.7217 20.4023 15.6922 20.4023 10.7217C20.4023 5.75112 16.3729 1.72168 11.4023 1.72168C6.43178 1.72168 2.40234 5.75112 2.40234 10.7217C2.40813 15.6898 6.43418 19.7159 11.4023 19.7217ZM11.4023 2.84668C12.645 2.84668 13.6523 3.85404 13.6523 5.09668C13.6523 6.33932 12.645 7.34668 11.4023 7.34668C10.1597 7.34668 9.15234 6.33932 9.15234 5.09668C9.15358 3.85455 10.1602 2.84792 11.4023 2.84668ZM6.17972 7.72468L10.124 8.07868C10.2577 8.09068 10.3918 8.09668 10.5263 8.09668H12.2783C12.4126 8.09668 12.5467 8.09068 12.6807 8.07868L16.6182 7.72505H16.6242C17.2438 7.67783 17.7843 8.14181 17.8315 8.76137C17.8788 9.38093 17.4148 9.92146 16.7952 9.96868L13.6178 10.2571C13.4247 10.2745 13.2768 10.4363 13.2766 10.6302V11.4927C13.2765 11.6803 13.3116 11.8663 13.3801 12.0409L15.191 16.6534C15.4248 17.2185 15.1644 17.8668 14.6048 18.1132C14.0451 18.3596 13.3911 18.1138 13.1322 17.5598L11.396 13.3422L9.67734 17.5467C9.51892 17.9209 9.171 18.1806 8.76719 18.226C8.36337 18.2715 7.96643 18.0956 7.72879 17.766C7.49114 17.4364 7.44974 17.0042 7.62047 16.6354L9.42497 12.0394C9.49306 11.8649 9.52779 11.6792 9.52734 11.4919V10.6294C9.52716 10.4355 9.3792 10.2738 9.18609 10.2563L6.00234 9.96793C5.38289 9.91926 4.92017 9.37764 4.96884 8.75818C5.01751 8.13872 5.55914 7.67601 6.17859 7.72468H6.17972Z" fill="#464646"/>
</g>
<defs>
<clipPath id="clip0_341_173">
<rect width="21" height="21" fill="white" transform="translate(0.902344 0.22168)"/>
</clipPath>
</defs>
</svg>
