<svg width="31" height="31" viewBox="0 0 31 31" fill="none" xmlns="http://www.w3.org/2000/svg">
<path fill-rule="evenodd" clip-rule="evenodd" d="M14.7231 5.49002C10.1181 5.95982 6.51994 9.85442 6.51994 14.583C6.51994 14.8365 6.53044 15.0876 6.55085 15.3357C4.28134 15.666 2.53564 17.6223 2.53564 19.9833C2.53564 22.5756 4.64044 24.6801 7.23274 24.6801H24.1401C26.7324 24.6801 28.8372 22.5756 28.8372 19.9833C28.8372 17.6046 27.0654 15.6369 24.771 15.3285C24.7911 15.0828 24.8013 14.8341 24.8013 14.583C24.8013 9.85442 21.2031 5.95982 16.5981 5.49002V16.6839L19.1274 14.1546C19.4934 13.7886 20.0874 13.7886 20.4534 14.1546C20.8191 14.5203 20.8191 15.1146 20.4534 15.4803L16.2402 19.6938C15.8739 20.0598 15.2802 20.0598 14.9142 19.6938L11.0376 15.8169C10.6716 15.4512 10.6716 14.8569 11.0376 14.4912C11.4033 14.1252 11.9976 14.1252 12.3633 14.4912L14.7231 16.851V5.49002Z" fill="white"/>
</svg>
