<svg width="31" height="31" viewBox="0 0 31 31" fill="none" xmlns="http://www.w3.org/2000/svg">
<g id="arrow (2) 1">
<g id="Layer2">
<path id="Vector" fill-rule="evenodd" clip-rule="evenodd" d="M14.3462 5.4552C9.74119 5.925 6.14299 9.8196 6.14299 14.5482C6.14299 14.8017 6.15349 15.0528 6.17389 15.3009C3.90439 15.6312 2.15869 17.5875 2.15869 19.9485C2.15869 22.5408 4.26349 24.6453 6.85579 24.6453H23.7632C26.3555 24.6453 28.4603 22.5408 28.4603 19.9485C28.4603 17.5698 26.6885 15.6021 24.3941 15.2937C24.4142 15.048 24.4244 14.7993 24.4244 14.5482C24.4244 9.8196 20.8262 5.925 16.2212 5.4552V16.6491L18.7505 14.1198C19.1165 13.7538 19.7105 13.7538 20.0765 14.1198C20.4422 14.4855 20.4422 15.0798 20.0765 15.4455L15.8633 19.659C15.497 20.025 14.9033 20.025 14.5373 19.659L10.6607 15.7821C10.2947 15.4164 10.2947 14.8221 10.6607 14.4564C11.0264 14.0904 11.6207 14.0904 11.9864 14.4564L14.3462 16.8162V5.4552Z" fill="#319860"/>
</g>
</g>
</svg>
