<svg width="24" height="24" viewBox="0 0 24 24" fill="none" xmlns="http://www.w3.org/2000/svg">
<path d="M17.9896 4.28144H5.8499C5.26883 4.28253 4.71187 4.51384 4.30099 4.92472C3.89011 5.3356 3.6588 5.89256 3.65771 6.47363V6.98394C3.658 7.07916 3.69595 7.17041 3.76329 7.23774C3.83062 7.30508 3.92187 7.34303 4.01709 7.34332H19.8224C19.9176 7.34303 20.0089 7.30508 20.0762 7.23774C20.1435 7.17041 20.1815 7.07916 20.1818 6.98394V6.47363C20.1807 5.89256 19.9494 5.3356 19.5385 4.92472C19.1276 4.51384 18.5707 4.28253 17.9896 4.28144Z" fill="white"/>
<path d="M14.8381 3.56269V3.33269C14.8381 3.18828 14.8096 3.04528 14.7544 2.91186C14.6991 2.77844 14.6181 2.65721 14.516 2.55509C14.4139 2.45298 14.2926 2.37197 14.1592 2.31671C14.0258 2.26145 13.8828 2.233 13.7384 2.233H10.0045C9.713 2.23361 9.43365 2.34967 9.22755 2.55577C9.02145 2.76186 8.90539 3.04122 8.90479 3.33269V3.56269H14.8381Z" fill="white"/>
<path d="M4.72168 8.06207L5.71355 20.5539C5.75416 21.0443 5.97709 21.5015 6.33836 21.8355C6.69962 22.1695 7.17297 22.3559 7.66496 22.358H16.1031C16.5951 22.3559 17.0684 22.1695 17.4297 21.8355C17.791 21.5015 18.0139 21.0443 18.0545 20.5539L19.05 8.06207H4.72168ZM14.6728 14.4302C14.6836 11.681 14.7051 8.93535 14.7051 8.93535C14.7053 8.88838 14.7148 8.84192 14.733 8.79861C14.7511 8.75531 14.7777 8.71601 14.8111 8.68297C14.8444 8.64992 14.884 8.62378 14.9275 8.60604C14.971 8.5883 15.0175 8.5793 15.0645 8.57957H15.0681C15.1633 8.5808 15.2542 8.61967 15.3208 8.68768C15.3875 8.75569 15.4245 8.84731 15.4239 8.94253C15.3915 13.0466 15.3628 19.2602 15.4095 19.8568C15.4243 19.9101 15.4267 19.9661 15.4163 20.0205C15.406 20.0749 15.3833 20.1261 15.3499 20.1703C15.3165 20.2144 15.2734 20.2503 15.2239 20.2751C15.1744 20.2999 15.1198 20.3129 15.0645 20.3132C15.0164 20.3126 14.9688 20.3029 14.9243 20.2844C14.6512 20.1694 14.6512 20.1694 14.6728 14.4302ZM11.5246 8.93894C11.5246 8.84363 11.5625 8.75222 11.6299 8.68482C11.6973 8.61743 11.7887 8.57957 11.884 8.57957C11.9793 8.57957 12.0707 8.61743 12.1381 8.68482C12.2055 8.75222 12.2434 8.84363 12.2434 8.93894V19.9538C12.2434 20.0491 12.2055 20.1405 12.1381 20.2079C12.0707 20.2753 11.9793 20.3132 11.884 20.3132C11.7887 20.3132 11.6973 20.2753 11.6299 20.2079C11.5625 20.1405 11.5246 20.0491 11.5246 19.9538V8.93894ZM8.3298 8.93894C8.3298 8.84363 8.36767 8.75222 8.43506 8.68482C8.50246 8.61743 8.59387 8.57957 8.68918 8.57957C8.78449 8.57957 8.8759 8.61743 8.9433 8.68482C9.01069 8.75222 9.04855 8.84363 9.04855 8.93894V19.9538C9.04855 20.0491 9.01069 20.1405 8.9433 20.2079C8.8759 20.2753 8.78449 20.3132 8.68918 20.3132C8.59387 20.3132 8.50246 20.2753 8.43506 20.2079C8.36767 20.1405 8.3298 20.0491 8.3298 19.9538V8.93894Z" fill="white"/>
</svg>
