<svg width="30" height="30" viewBox="0 0 30 30" fill="none" xmlns="http://www.w3.org/2000/svg">
<g clip-path="url(#clip0_500_273)">
<path d="M26.9896 18.0393C25.388 18.0393 24.0896 16.7409 24.0896 15.1393C24.0896 13.5376 25.388 12.2393 26.9896 12.2393C28.5913 12.2393 29.8896 13.5376 29.8896 15.1393C29.8896 16.7409 28.5913 18.0393 26.9896 18.0393Z" fill="#3553A1"/>
<path d="M15.39 18.0393C13.7884 18.0393 12.49 16.7409 12.49 15.1393C12.49 13.5376 13.7884 12.2393 15.39 12.2393C16.9917 12.2393 18.29 13.5376 18.29 15.1393C18.29 16.7409 16.9917 18.0393 15.39 18.0393Z" fill="#3553A1"/>
<path d="M3.78943 18.0393C2.1878 18.0393 0.889413 16.7409 0.889413 15.1393C0.889413 13.5376 2.1878 12.2393 3.78943 12.2393C5.39107 12.2393 6.68945 13.5376 6.68945 15.1393C6.68945 16.7409 5.39107 18.0393 3.78943 18.0393Z" fill="#3553A1"/>
</g>
<defs>
<clipPath id="clip0_500_273">
<rect width="29" height="29" fill="white" transform="matrix(-1 0 0 1 29.8896 0.63916)"/>
</clipPath>
</defs>
</svg>
