<svg width="27" height="27" viewBox="0 0 27 27" fill="none" xmlns="http://www.w3.org/2000/svg">
<g id="chat 1" clip-path="url(#clip0_9_108)">
<g id="Group">
<path id="Vector" d="M17.6792 6.48056C16.2114 3.48347 13.141 1.50198 9.69696 1.50198C4.76891 1.50198 0.759669 5.48847 0.759669 10.3885C0.759669 11.7201 1.04556 12.9965 1.60983 14.1865L0.774446 18.364C0.668112 18.8957 1.13722 19.3657 1.66909 19.2605L5.898 18.4244C6.4674 18.6945 7.05645 18.8999 7.66169 19.0415C6.305 12.6157 11.1756 6.58405 17.6792 6.48056Z" fill="black"/>
<path id="Vector_2" d="M25.9089 20.6864C26.0549 20.3786 26.1818 20.065 26.2904 19.7462H26.2625C28.1641 14.1647 24.165 8.29834 18.2612 8.0127C18.2611 8.0124 18.2611 8.01209 18.261 8.01179C13.1811 7.77769 8.96069 11.845 8.96069 16.8883C8.96069 21.7843 12.9399 25.7676 17.8342 25.7747C19.1617 25.7729 20.4341 25.4871 21.6207 24.9243C26.2522 25.84 25.891 25.7749 25.9974 25.7749C26.4787 25.7749 26.8383 25.3338 26.7443 24.8638L25.9089 20.6864Z" fill="black"/>
</g>
</g>
<defs>
<clipPath id="clip0_9_108">
<rect width="26" height="26" fill="white" transform="translate(0.759277 0.638916)"/>
</clipPath>
</defs>
</svg>
