<svg width="29" height="27" viewBox="0 0 29 27" fill="none" xmlns="http://www.w3.org/2000/svg">
<path id="Vector" fill-rule="evenodd" clip-rule="evenodd" d="M0.240723 14.9476C0.240723 7.04513 6.62481 0.638916 14.5 0.638916C22.3751 0.638916 28.7592 7.04513 28.7592 14.9476C28.7592 19.2853 26.8341 23.1733 23.7989 25.7954C23.1048 26.3949 22.239 26.6547 21.4136 26.6547H7.5875C6.76223 26.6547 5.8965 26.3951 5.20245 25.7957C2.16676 23.1737 0.240723 19.2859 0.240723 14.9476ZM15.7963 4.54128C15.7963 3.82288 15.2159 3.24049 14.5 3.24049C13.784 3.24049 13.2037 3.82288 13.2037 4.54128V5.84207C13.2037 6.56047 13.784 7.14286 14.5 7.14286C15.2159 7.14286 15.7963 6.56047 15.7963 5.84207V4.54128ZM2.83331 14.9476C2.83331 14.2292 3.41369 13.6468 4.12961 13.6468H5.4259C6.14182 13.6468 6.7222 14.2292 6.7222 14.9476C6.7222 15.666 6.14182 16.2484 5.4259 16.2484H4.12961C3.41369 16.2484 2.83331 15.666 2.83331 14.9476ZM23.574 13.6468C22.8581 13.6468 22.2777 14.2292 22.2777 14.9476C22.2777 15.666 22.8581 16.2484 23.574 16.2484H24.8703C25.5863 16.2484 26.1666 15.666 26.1666 14.9476C26.1666 14.2292 25.5863 13.6468 24.8703 13.6468H23.574ZM8.93512 9.36341C8.42888 9.8714 7.60811 9.8714 7.10187 9.36341L6.18526 8.44361C5.67902 7.93563 5.67902 7.11201 6.18526 6.60402C6.69149 6.09603 7.51227 6.09603 8.0185 6.60402L8.93512 7.52381C9.44135 8.03181 9.44135 8.85542 8.93512 9.36341ZM17.0926 14.9476C17.0926 14.7145 17.062 14.4887 17.0048 14.2738L20.6018 10.6642C21.108 10.1562 21.108 9.33264 20.6018 8.82464C20.0956 8.31665 19.2747 8.31665 18.7685 8.82464L15.1715 12.4341C14.9573 12.3767 14.7323 12.346 14.5 12.346C13.0681 12.346 11.9074 13.5107 11.9074 14.9476C11.9074 16.3844 13.0681 17.5492 14.5 17.5492C15.9319 17.5492 17.0926 16.3844 17.0926 14.9476Z" fill="#3553A1"/>
</svg>
