<svg width="20" height="19" viewBox="0 0 20 19" fill="none" xmlns="http://www.w3.org/2000/svg">
<g clip-path="url(#clip0_167_1738)">
<path d="M15.1875 10.3215V13.7808C15.1875 13.9327 15.1222 14.0733 15.0153 14.1802C14.9322 14.2533 13.0203 16.0308 9.84375 16.0308C6.66719 16.0308 4.75531 14.2533 4.67219 14.1802C4.56531 14.0733 4.5 13.9327 4.5 13.7808V10.3215L9.04813 12.4758C9.29156 12.594 9.57063 12.6558 9.84375 12.6558C10.1169 12.6558 10.3959 12.594 10.6394 12.4758L15.1875 10.3215ZM18.1562 11.6872V7.65971L18.4217 7.53371C18.6229 7.43864 18.75 7.24402 18.75 7.03083C18.75 6.81765 18.6229 6.62302 18.4217 6.5274L10.1092 2.5899C9.94231 2.51058 9.74519 2.51058 9.57775 2.5899L1.26525 6.5274C1.06456 6.62302 0.9375 6.81765 0.9375 7.03083C0.9375 7.24402 1.06456 7.43865 1.26584 7.53427L9.57834 11.4718C9.66147 11.5111 9.75291 11.5308 9.84375 11.5308C9.93459 11.5308 10.026 11.5111 10.1092 11.4718L16.9688 8.22221V11.6872C16.6155 11.8824 16.375 12.2407 16.375 12.6558C16.375 13.2763 16.9076 13.7808 17.5625 13.7808C18.2174 13.7808 18.75 13.2763 18.75 12.6558C18.75 12.2413 18.5095 11.8824 18.1562 11.6872Z" fill="#565656"/>
</g>
<defs>
<clipPath id="clip0_167_1738">
<rect width="19" height="18" fill="white" transform="translate(0.34375 0.280838)"/>
</clipPath>
</defs>
</svg>
