<svg width="16" height="16" viewBox="0 0 16 16" fill="none" xmlns="http://www.w3.org/2000/svg">
<g clip-path="url(#clip0_72_77)">
<path d="M10.6716 0.638916H4.67163C3.84484 0.638916 3.17163 1.31213 3.17163 2.13892V14.1389C3.17163 14.9663 3.84484 15.6389 4.67163 15.6389H10.6716C11.499 15.6389 12.1716 14.9663 12.1716 14.1389V2.13892C12.1716 1.31213 11.499 0.638916 10.6716 0.638916ZM11.5716 14.1389C11.5716 14.6351 11.1678 15.0389 10.6716 15.0389H4.67163C4.17543 15.0389 3.77163 14.6351 3.77163 14.1389V2.13892C3.77163 1.64271 4.17543 1.23892 4.67163 1.23892H10.6716C11.1678 1.23892 11.5716 1.64271 11.5716 2.13892V14.1389Z" fill="#9B9B9B"/>
<path d="M8.27161 1.83892H7.07161C6.90599 1.83892 6.77161 1.97333 6.77161 2.13892C6.77161 2.3045 6.90602 2.43892 7.07161 2.43892H8.27161C8.43719 2.43892 8.57161 2.3045 8.57161 2.13892C8.57161 1.97333 8.43719 1.83892 8.27161 1.83892Z" fill="#9B9B9B"/>
<path d="M7.67164 13.8389C7.50606 13.8389 7.37164 13.9733 7.37164 14.1389C7.37164 14.3045 7.50606 14.4389 7.67164 14.4389C7.83723 14.4389 7.97164 14.3045 7.97164 14.1389C7.97164 13.9733 7.83723 13.8389 7.67164 13.8389Z" fill="#9B9B9B"/>
<path d="M11.8716 3.03892H3.47163C3.30602 3.03892 3.17163 3.17333 3.17163 3.33892C3.17163 3.50453 3.30602 3.63892 3.47163 3.63892H11.8716C12.0372 3.63892 12.1716 3.5045 12.1716 3.33892C12.1716 3.17333 12.0372 3.03892 11.8716 3.03892Z" fill="#9B9B9B"/>
<path d="M11.8716 12.6389H3.47163C3.30602 12.6389 3.17163 12.7733 3.17163 12.9389C3.17163 13.1045 3.30602 13.2389 3.47163 13.2389H11.8716C12.0372 13.2389 12.1716 13.1045 12.1716 12.9389C12.1716 12.7733 12.0372 12.6389 11.8716 12.6389Z" fill="#9B9B9B"/>
</g>
<defs>
<clipPath id="clip0_72_77">
<rect width="15" height="15" fill="white" transform="translate(0.171631 0.638916)"/>
</clipPath>
</defs>
</svg>
