<svg width="17" height="13" viewBox="0 0 17 13" fill="none" xmlns="http://www.w3.org/2000/svg">
<path d="M16.3266 7.14512L11.0766 12.3951C10.9352 12.5317 10.7457 12.6073 10.5491 12.6056C10.3524 12.6039 10.1643 12.525 10.0253 12.386C9.88622 12.2469 9.80734 12.0588 9.80563 11.8622C9.80392 11.6655 9.87952 11.4761 10.0161 11.3346L13.9859 7.36487H0.796387C0.597474 7.36487 0.406709 7.28585 0.266057 7.1452C0.125404 7.00455 0.0463867 6.81378 0.0463867 6.61487C0.0463867 6.41596 0.125404 6.22519 0.266057 6.08454C0.406709 5.94389 0.597474 5.86487 0.796387 5.86487H13.9859L10.0161 1.89512C9.9445 1.82593 9.88737 1.74317 9.84806 1.65167C9.80875 1.56017 9.78806 1.46175 9.7872 1.36217C9.78633 1.26258 9.80531 1.16383 9.84302 1.07165C9.88073 0.979481 9.93642 0.895741 10.0068 0.825322C10.0773 0.754903 10.161 0.699212 10.2532 0.661501C10.3453 0.623791 10.4441 0.604815 10.5437 0.60568C10.6433 0.606545 10.7417 0.627235 10.8332 0.666542C10.9247 0.705849 11.0075 0.762984 11.0766 0.834618L16.3266 6.08462C16.4672 6.22526 16.5462 6.41599 16.5462 6.61487C16.5462 6.81374 16.4672 7.00447 16.3266 7.14512Z" fill="#FFEDED"/>
</svg>
