<svg width="16" height="16" viewBox="0 0 16 16" fill="none" xmlns="http://www.w3.org/2000/svg">
<path d="M12.9749 2.83561C11.5584 1.41906 9.67492 0.638916 7.67163 0.638916C5.66834 0.638916 3.78487 1.41906 2.36832 2.83561C0.951775 4.25216 0.171631 6.13563 0.171631 8.13892C0.171631 10.1422 0.951775 12.0257 2.36832 13.4422C3.78487 14.8588 5.66834 15.6389 7.67163 15.6389C9.67492 15.6389 11.5584 14.8588 12.9749 13.4422C14.3915 12.0257 15.1716 10.1422 15.1716 8.13892C15.1716 6.13563 14.3915 4.25216 12.9749 2.83561ZM3.42667 13.216C3.67432 11.0851 5.50641 9.43988 7.67163 9.43988C8.81306 9.43988 9.88641 9.8846 10.6938 10.6919C11.3759 11.374 11.806 12.2647 11.9167 13.2159C10.7666 14.1791 9.28571 14.76 7.67163 14.76C6.05756 14.76 4.57681 14.1792 3.42667 13.216ZM7.67163 8.53465C6.41564 8.53465 5.39368 7.5127 5.39368 6.25671C5.39368 5.0006 6.41564 3.97876 7.67163 3.97876C8.92762 3.97876 9.94958 5.0006 9.94958 6.25671C9.94958 7.5127 8.92762 8.53465 7.67163 8.53465ZM12.6732 12.4729C12.4492 11.57 11.9822 10.7374 11.3152 10.0704C10.775 9.53029 10.136 9.12505 9.43906 8.87111C10.2769 8.30291 10.8285 7.34298 10.8285 6.25671C10.8285 4.51606 9.41228 3.09985 7.67163 3.09985C5.93098 3.09985 4.51478 4.51606 4.51478 6.25671C4.51478 7.34355 5.06684 8.30383 5.90535 8.87191C5.26414 9.1056 4.67076 9.46689 4.16024 9.9425C3.42095 10.631 2.90757 11.5089 2.66953 12.4722C1.66142 11.3101 1.05054 9.79453 1.05054 8.13892C1.05054 4.48802 4.02074 1.51782 7.67163 1.51782C11.3225 1.51782 14.2927 4.48802 14.2927 8.13892C14.2927 9.79488 13.6816 11.3108 12.6732 12.4729Z" fill="#9B9B9B"/>
</svg>
