<svg width="31" height="30" viewBox="0 0 31 30" fill="none" xmlns="http://www.w3.org/2000/svg">
<g id="bell 1" clip-path="url(#clip0_9_112)">
<g id="Group">
<path id="Vector" d="M27.483 21.0755C25.593 19.5312 24.5093 17.274 24.5093 14.8827V11.5139C24.5093 7.26179 21.2418 3.74192 17.0093 3.15225V1.84725C17.0093 1.17904 16.4493 0.638916 15.7593 0.638916C15.0693 0.638916 14.5093 1.17904 14.5093 1.84725V3.15225C10.2755 3.74192 7.00928 7.26179 7.00928 11.5139V14.8827C7.00928 17.274 5.92553 19.5312 4.02428 21.0851C3.53803 21.4875 3.25928 22.0723 3.25928 22.691C3.25928 23.857 4.24053 24.8056 5.44678 24.8056H26.0718C27.278 24.8056 28.2593 23.857 28.2593 22.691C28.2593 22.0723 27.9805 21.4875 27.483 21.0755Z" fill="black"/>
<path id="Vector_2" d="M15.7592 29.6389C18.023 29.6389 19.9167 28.079 20.3517 26.0139H11.1667C11.6017 28.079 13.4955 29.6389 15.7592 29.6389Z" fill="black"/>
</g>
</g>
<defs>
<clipPath id="clip0_9_112">
<rect width="30" height="29" fill="white" transform="translate(0.759277 0.638916)"/>
</clipPath>
</defs>
</svg>
