<svg width="19" height="21" viewBox="0 0 19 21" fill="none" xmlns="http://www.w3.org/2000/svg">
<path fill-rule="evenodd" clip-rule="evenodd" d="M14.25 13.2845V16.4062C14.25 16.9286 14.0624 17.4293 13.7281 17.7982C13.3944 18.1676 12.9414 18.375 12.4688 18.375H2.96875C2.49613 18.375 2.04309 18.1676 1.70941 17.7982C1.37512 17.4293 1.1875 16.9286 1.1875 16.4062V4.59375C1.1875 4.07138 1.37512 3.57066 1.70941 3.20184C2.04309 2.83238 2.49613 2.625 2.96875 2.625H12.4688C12.9414 2.625 13.3944 2.83238 13.7281 3.20184C14.0624 3.57066 14.25 4.07138 14.25 4.59375V7.71553L14.9459 6.94706C15.4096 6.43453 16.1613 6.43453 16.625 6.94706L17.4646 7.875C17.9283 8.38753 17.9283 9.21834 17.4646 9.73088L14.25 13.2845ZM13.0625 9.02803V7.21875H2.375V16.4062C2.375 16.5802 2.43734 16.7475 2.54897 16.8702C2.66 16.9936 2.81141 17.0625 2.96875 17.0625H12.4688C12.6261 17.0625 12.7775 16.9936 12.8885 16.8702C13.0002 16.7475 13.0625 16.5802 13.0625 16.4062V14.597L12.5958 15.1128C12.5335 15.1817 12.4575 15.2342 12.3743 15.267L10.3592 16.0571C10.0356 16.1838 9.67456 16.0939 9.43172 15.8255C9.18888 15.5571 9.10753 15.1581 9.22213 14.8004L9.937 12.5731C9.96669 12.4812 10.0142 12.3972 10.0765 12.3283L13.0625 9.02803ZM13.0625 5.90625V4.59375C13.0625 4.41984 13.0002 4.2525 12.8885 4.12978C12.7775 4.00641 12.6261 3.9375 12.4688 3.9375H2.96875C2.81141 3.9375 2.66 4.00641 2.54897 4.12978C2.43734 4.2525 2.375 4.41984 2.375 4.59375V5.90625H13.0625ZM10.5498 14.5898L11.8513 14.0798L16.625 8.80294L15.7854 7.875L11.0111 13.1513L10.5498 14.5898ZM4.15625 9.84375C3.8285 9.84375 3.5625 9.54975 3.5625 9.1875C3.5625 8.82525 3.8285 8.53125 4.15625 8.53125H11.2813C11.609 8.53125 11.875 8.82525 11.875 9.1875C11.875 9.54975 11.609 9.84375 11.2813 9.84375H4.15625ZM4.15625 12.4688C3.8285 12.4688 3.5625 12.1748 3.5625 11.8125C3.5625 11.4502 3.8285 11.1562 4.15625 11.1562H8.90625C9.234 11.1562 9.5 11.4502 9.5 11.8125C9.5 12.1748 9.234 12.4688 8.90625 12.4688H4.15625ZM4.15625 15.0938C3.8285 15.0938 3.5625 14.7998 3.5625 14.4375C3.5625 14.0752 3.8285 13.7812 4.15625 13.7812H7.71875C8.0465 13.7812 8.3125 14.0752 8.3125 14.4375C8.3125 14.7998 8.0465 15.0938 7.71875 15.0938H4.15625Z" fill="#565656"/>
</svg>
