<svg width="27" height="27" viewBox="0 0 27 27" fill="none" xmlns="http://www.w3.org/2000/svg">
<g clip-path="url(#clip0_500_206)">
<path d="M17.6792 6.48053C16.2114 3.48344 13.141 1.50195 9.69696 1.50195C4.76891 1.50195 0.759669 5.48844 0.759669 10.3885C0.759669 11.7201 1.04556 12.9965 1.60983 14.1865L0.774446 18.3639C0.668112 18.8957 1.13722 19.3657 1.66909 19.2605L5.898 18.4244C6.4674 18.6945 7.05645 18.8999 7.66169 19.0414C6.305 12.6157 11.1756 6.58402 17.6792 6.48053Z" fill="#3553A1"/>
<path d="M25.9087 20.6864C26.0546 20.3786 26.1815 20.065 26.2901 19.7463H26.2622C28.1638 14.1647 24.1648 8.29837 18.261 8.01273C18.2609 8.01243 18.2608 8.01213 18.2607 8.01182C13.1809 7.77772 8.96045 11.845 8.96045 16.8884C8.96045 21.7843 12.9396 25.7676 17.8339 25.7747C19.1615 25.773 20.4339 25.4872 21.6205 24.9243C26.252 25.84 25.8908 25.7749 25.9972 25.7749C26.4785 25.7749 26.8381 25.3338 26.7441 24.8638L25.9087 20.6864Z" fill="#3553A1"/>
</g>
<defs>
<clipPath id="clip0_500_206">
<rect width="26" height="26" fill="white" transform="translate(0.759277 0.638916)"/>
</clipPath>
</defs>
</svg>
