<svg width="29" height="27" viewBox="0 0 29 27" fill="none" xmlns="http://www.w3.org/2000/svg">
<path fill-rule="evenodd" clip-rule="evenodd" d="M0.240753 14.9476C0.240753 7.0451 6.62484 0.638885 14.5 0.638885C22.3751 0.638885 28.7593 7.0451 28.7593 14.9476C28.7593 19.2853 26.8341 23.1732 23.799 25.7954C23.1048 26.3949 22.239 26.6547 21.4137 26.6547H7.58753C6.76226 26.6547 5.89653 26.395 5.20248 25.7956C2.16679 23.1736 0.240753 19.2858 0.240753 14.9476ZM15.7963 4.54125C15.7963 3.82285 15.2159 3.24046 14.5 3.24046C13.7841 3.24046 13.2037 3.82285 13.2037 4.54125V5.84204C13.2037 6.56044 13.7841 7.14283 14.5 7.14283C15.2159 7.14283 15.7963 6.56044 15.7963 5.84204V4.54125ZM2.83334 14.9476C2.83334 14.2291 3.41372 13.6468 4.12964 13.6468H5.42593C6.14185 13.6468 6.72223 14.2291 6.72223 14.9476C6.72223 15.666 6.14185 16.2484 5.42593 16.2484H4.12964C3.41372 16.2484 2.83334 15.666 2.83334 14.9476ZM23.5741 13.6468C22.8581 13.6468 22.2778 14.2291 22.2778 14.9476C22.2778 15.666 22.8581 16.2484 23.5741 16.2484H24.8704C25.5863 16.2484 26.1667 15.666 26.1667 14.9476C26.1667 14.2291 25.5863 13.6468 24.8704 13.6468H23.5741ZM8.93515 9.36338C8.42891 9.87137 7.60814 9.87137 7.1019 9.36338L6.18529 8.44358C5.67905 7.9356 5.67905 7.11198 6.18529 6.60399C6.69152 6.096 7.5123 6.096 8.01853 6.60399L8.93515 7.52378C9.44138 8.03178 9.44138 8.85538 8.93515 9.36338ZM17.0926 14.9476C17.0926 14.7145 17.062 14.4886 17.0048 14.2738L20.6018 10.6642C21.108 10.1562 21.108 9.33261 20.6018 8.82461C20.0956 8.31662 19.2748 8.31662 18.7686 8.82461L15.1715 12.4341C14.9573 12.3767 14.7323 12.346 14.5 12.346C13.0681 12.346 11.9074 13.5107 11.9074 14.9476C11.9074 16.3844 13.0681 17.5491 14.5 17.5491C15.9319 17.5491 17.0926 16.3844 17.0926 14.9476Z" fill="black"/>
</svg>
