<svg width="22" height="22" viewBox="0 0 22 22" fill="none" xmlns="http://www.w3.org/2000/svg">
<g clip-path="url(#clip0_338_157)">
<path d="M17.9906 6.90397H10.4141L8.90705 5.11279C8.85635 5.05185 8.78038 5.01767 8.70117 5.02014H2.58852C1.65526 5.02694 0.902344 5.78541 0.902344 6.71867V17.7354C0.903476 18.6719 1.66236 19.4308 2.59881 19.4319H17.9906C18.927 19.4308 19.6859 18.6719 19.687 17.7354V8.60044C19.6859 7.66398 18.927 6.9051 17.9906 6.90397Z" fill="#464646"/>
<path d="M20.2162 4.70914H12.6377L11.1306 2.91797C11.0799 2.85703 11.004 2.82285 10.9248 2.82532H4.81417C3.96738 2.82671 3.25132 3.45228 3.13623 4.2912H8.70946C9.00171 4.29048 9.27919 4.41947 9.46711 4.64326L10.7539 6.17297H17.9906C19.3291 6.17523 20.4137 7.25977 20.4159 8.59826V17.2206C21.2646 17.1147 21.9017 16.3938 21.9024 15.5386V6.40356C21.9002 5.47189 21.1478 4.71594 20.2162 4.70914Z" fill="#464646"/>
</g>
<defs>
<clipPath id="clip0_338_157">
<rect width="21" height="21" fill="white" transform="translate(0.902344 0.628418)"/>
</clipPath>
</defs>
</svg>
