<svg width="24" height="24" viewBox="0 0 24 24" fill="none" xmlns="http://www.w3.org/2000/svg">
<g clip-path="url(#clip0_193_318)">
<path d="M11.812 0.13269C5.289 0.13269 0 5.42169 0 11.9447C0 18.4677 5.289 23.7577 11.812 23.7577C18.335 23.7577 23.625 18.4677 23.625 11.9447C23.625 5.42169 18.335 0.13269 11.812 0.13269ZM14.271 18.4397C13.663 18.6797 13.179 18.8617 12.816 18.9877C12.454 19.1137 12.033 19.1767 11.554 19.1767C10.818 19.1767 10.245 18.9967 9.837 18.6377C9.429 18.2787 9.226 17.8237 9.226 17.2707C9.226 17.0557 9.241 16.8357 9.271 16.6117C9.302 16.3877 9.351 16.1357 9.418 15.8527L10.179 13.1647C10.246 12.9067 10.304 12.6617 10.35 12.4337C10.396 12.2037 10.418 11.9927 10.418 11.8007C10.418 11.4587 10.347 11.2187 10.206 11.0837C10.063 10.9487 9.794 10.8827 9.393 10.8827C9.197 10.8827 8.995 10.9117 8.788 10.9727C8.583 11.0357 8.405 11.0927 8.259 11.1487L8.46 10.3207C8.958 10.1177 9.435 9.94369 9.89 9.79969C10.345 9.65369 10.775 9.58169 11.18 9.58169C11.911 9.58169 12.475 9.75969 12.872 10.1117C13.267 10.4647 13.466 10.9237 13.466 11.4877C13.466 11.6047 13.452 11.8107 13.425 12.1047C13.398 12.3997 13.347 12.6687 13.273 12.9157L12.516 15.5957C12.454 15.8107 12.399 16.0567 12.349 16.3317C12.3 16.6067 12.276 16.8167 12.276 16.9577C12.276 17.3137 12.355 17.5567 12.515 17.6857C12.673 17.8147 12.95 17.8797 13.342 17.8797C13.527 17.8797 13.734 17.8467 13.968 17.7827C14.2 17.7187 14.368 17.6617 14.474 17.6127L14.271 18.4397ZM14.137 7.56169C13.784 7.88969 13.359 8.05369 12.862 8.05369C12.366 8.05369 11.938 7.88969 11.582 7.56169C11.228 7.23369 11.049 6.83469 11.049 6.36869C11.049 5.90369 11.229 5.50369 11.582 5.17269C11.938 4.84069 12.366 4.67569 12.862 4.67569C13.359 4.67569 13.785 4.84069 14.137 5.17269C14.49 5.50369 14.667 5.90369 14.667 6.36869C14.667 6.83569 14.49 7.23369 14.137 7.56169Z" fill="#3553A1"/>
</g>
<defs>
<clipPath id="clip0_193_318">
<rect width="23.625" height="23.625" fill="white" transform="translate(0 0.13269)"/>
</clipPath>
</defs>
</svg>
