<svg width="20" height="13" viewBox="0 0 20 13" fill="none" xmlns="http://www.w3.org/2000/svg">
<path d="M0.579821 7.14512L6.60461 12.3951C6.76694 12.5317 6.98435 12.6073 7.21002 12.6056C7.43569 12.6039 7.65156 12.525 7.81113 12.386C7.97071 12.2469 8.06123 12.0588 8.06319 11.8622C8.06515 11.6655 7.9784 11.4761 7.82162 11.3346L3.26602 7.36487H18.402C18.6303 7.36487 18.8492 7.28585 19.0106 7.1452C19.172 7.00455 19.2627 6.81378 19.2627 6.61487C19.2627 6.41596 19.172 6.22519 19.0106 6.08454C18.8492 5.94389 18.6303 5.86487 18.402 5.86487H3.26602L7.82162 1.89512C7.90382 1.82593 7.96939 1.74317 8.0145 1.65167C8.05961 1.56017 8.08335 1.46175 8.08434 1.36217C8.08534 1.26258 8.06356 1.16383 8.02028 1.07165C7.97701 0.979481 7.9131 0.895741 7.83229 0.825322C7.75147 0.754903 7.65538 0.699212 7.5496 0.661501C7.44383 0.623791 7.33049 0.604815 7.21621 0.60568C7.10193 0.606545 6.98899 0.627235 6.88399 0.666542C6.77898 0.705849 6.68401 0.762984 6.60461 0.834618L0.579821 6.08462C0.418467 6.22526 0.327824 6.41599 0.327824 6.61487C0.327824 6.81374 0.418467 7.00447 0.579821 7.14512Z" fill="#FFEDED"/>
</svg>
