<svg width="73" height="72" viewBox="0 0 73 72" fill="none" xmlns="http://www.w3.org/2000/svg">
<g filter="url(#filter0_d_280_1626)">
<ellipse cx="36.5" cy="32" rx="32.5" ry="32" fill="#FBFBFB"/>
</g>
<path d="M30.6252 34.9167H54.1252C55.3002 34.9167 56.0835 34.15 56.0835 33C56.0835 31.85 55.3002 31.0833 54.1252 31.0833H30.6252C29.4502 31.0833 28.6668 31.85 28.6668 33C28.6668 34.15 29.4502 34.9167 30.6252 34.9167Z" fill="#3553A1"/>
<path d="M18.875 34.9167H22.7917C23.9667 34.9167 24.75 34.15 24.75 33C24.75 31.85 23.9667 31.0833 22.7917 31.0833H18.875C17.7 31.0833 16.9167 31.85 16.9167 33C16.9167 34.15 17.7 34.9167 18.875 34.9167Z" fill="#319860"/>
<path d="M30.6252 25.3333H54.1252C55.3002 25.3333 56.0835 24.5667 56.0835 23.4167C56.0835 22.2667 55.3002 21.5 54.1252 21.5H30.6252C29.4502 21.5 28.6668 22.2667 28.6668 23.4167C28.6668 24.5667 29.4502 25.3333 30.6252 25.3333Z" fill="#3553A1"/>
<path d="M18.875 25.3333H22.7917C23.9667 25.3333 24.75 24.5667 24.75 23.4167C24.75 22.2667 23.9667 21.5 22.7917 21.5H18.875C17.7 21.5 16.9167 22.2667 16.9167 23.4167C16.9167 24.5667 17.7 25.3333 18.875 25.3333Z" fill="#319860"/>
<path d="M30.6252 44.5H54.1252C55.3002 44.5 56.0835 43.7333 56.0835 42.5833C56.0835 41.4333 55.3002 40.6667 54.1252 40.6667H30.6252C29.4502 40.6667 28.6668 41.4333 28.6668 42.5833C28.6668 43.7333 29.4502 44.5 30.6252 44.5Z" fill="#3553A1"/>
<path d="M18.875 44.5H22.7917C23.9667 44.5 24.75 43.7333 24.75 42.5833C24.75 41.4333 23.9667 40.6667 22.7917 40.6667H18.875C17.7 40.6667 16.9167 41.4333 16.9167 42.5833C16.9167 43.7333 17.7 44.5 18.875 44.5Z" fill="#319860"/>
<defs>
<filter id="filter0_d_280_1626" x="0" y="0" width="73" height="72" filterUnits="userSpaceOnUse" color-interpolation-filters="sRGB">
<feFlood flood-opacity="0" result="BackgroundImageFix"/>
<feColorMatrix in="SourceAlpha" type="matrix" values="0 0 0 0 0 0 0 0 0 0 0 0 0 0 0 0 0 0 127 0" result="hardAlpha"/>
<feOffset dy="4"/>
<feGaussianBlur stdDeviation="2"/>
<feComposite in2="hardAlpha" operator="out"/>
<feColorMatrix type="matrix" values="0 0 0 0 0 0 0 0 0 0 0 0 0 0 0 0 0 0 0.25 0"/>
<feBlend mode="normal" in2="BackgroundImageFix" result="effect1_dropShadow_280_1626"/>
<feBlend mode="normal" in="SourceGraphic" in2="effect1_dropShadow_280_1626" result="shape"/>
</filter>
</defs>
</svg>
