<svg width="37" height="36" viewBox="0 0 37 36" fill="none" xmlns="http://www.w3.org/2000/svg">
<path d="M28.3658 20.1623V26.8889C28.3658 27.1842 28.242 27.4576 28.0395 27.6654C27.882 27.8076 24.2595 31.2639 18.2408 31.2639C12.222 31.2639 8.5995 27.8076 8.442 27.6654C8.2395 27.4576 8.11575 27.1842 8.11575 26.8889V20.1623L16.7333 24.3514C17.1945 24.5811 17.7233 24.7014 18.2408 24.7014C18.7583 24.7014 19.287 24.5811 19.7483 24.3514L28.3658 20.1623ZM33.9908 22.8179V14.9867L34.4936 14.7417C34.875 14.5569 35.1158 14.1784 35.1158 13.7639C35.1158 13.3493 34.875 12.9709 34.4936 12.785L18.7436 5.12873C18.4275 4.97451 18.054 4.97451 17.7368 5.12873L1.98675 12.785C1.6065 12.9709 1.36575 13.3493 1.36575 13.7639C1.36575 14.1784 1.6065 14.5569 1.98788 14.7428L17.7379 22.399C17.8954 22.4756 18.0686 22.5139 18.2408 22.5139C18.4129 22.5139 18.5861 22.4756 18.7436 22.399L31.7408 16.0804V22.8179C31.0714 23.1975 30.6158 23.8942 30.6158 24.7014C30.6158 25.9078 31.6249 26.8889 32.8658 26.8889C34.1066 26.8889 35.1158 25.9078 35.1158 24.7014C35.1158 23.8953 34.6601 23.1975 33.9908 22.8179Z" fill="#3553A1"/>
</svg>
