<svg width="31" height="30" viewBox="0 0 31 30" fill="none" xmlns="http://www.w3.org/2000/svg">
<g id="mortarboard 1">
<g id="_x30_1_toga_hat">
<path id="Vector" d="M24.1968 16.8155V22.3889C24.1968 22.6336 24.0937 22.8602 23.9249 23.0324C23.7937 23.1502 20.7749 26.0139 15.7593 26.0139C10.7437 26.0139 7.7249 23.1502 7.59365 23.0324C7.4249 22.8602 7.32178 22.6336 7.32178 22.3889V16.8155L14.503 20.2864C14.8874 20.4767 15.328 20.5764 15.7593 20.5764C16.1905 20.5764 16.6312 20.4767 17.0155 20.2864L24.1968 16.8155ZM28.8843 19.0159V12.5271L29.3033 12.3241C29.6212 12.171 29.8218 11.8574 29.8218 11.5139C29.8218 11.1705 29.6212 10.8569 29.3033 10.7028L16.1783 4.35908C15.9149 4.2313 15.6037 4.2313 15.3393 4.35908L2.21428 10.7028C1.8974 10.8569 1.69678 11.1705 1.69678 11.5139C1.69678 11.8574 1.8974 12.171 2.21521 12.325L15.3402 18.6688C15.4715 18.7322 15.6158 18.7639 15.7593 18.7639C15.9027 18.7639 16.0471 18.7322 16.1783 18.6688L27.0093 13.4334V19.0159C26.4515 19.3303 26.0718 19.9076 26.0718 20.5764C26.0718 21.576 26.9127 22.3889 27.9468 22.3889C28.9808 22.3889 29.8218 21.576 29.8218 20.5764C29.8218 19.9085 29.4421 19.3303 28.8843 19.0159Z" fill="black"/>
</g>
</g>
</svg>
