<svg width="15" height="16" viewBox="0 0 15 16" fill="none" xmlns="http://www.w3.org/2000/svg">
<g clip-path="url(#clip0_7_41)">
<path d="M0.75 12.6709H2V14.1709C2.00083 14.8609 2.55999 15.4201 3.25 15.4209H11.75C12.44 15.4201 12.9992 14.8609 13 14.1709V12.6709H14.25C14.6642 12.6709 15 12.3351 15 11.9209V9.4209C15 9.00669 14.6642 8.6709 14.25 8.6709H13V7.1709C12.9992 6.48089 12.44 5.92172 11.75 5.9209V4.6709C11.75 2.32369 9.84721 0.420898 7.5 0.420898C5.15279 0.420898 3.25 2.32369 3.25 4.6709V5.9209C2.55999 5.92172 2.00083 6.48089 2 7.1709V8.6709H0.75C0.335786 8.6709 0 9.00669 0 9.4209V11.9209C0 12.3351 0.335786 12.6709 0.75 12.6709ZM12.5 14.1709C12.5 14.5851 12.1642 14.9209 11.75 14.9209H3.25C2.83579 14.9209 2.5 14.5851 2.5 14.1709V12.6709H12.5V14.1709ZM3.75 4.6709C3.75 2.59983 5.42893 0.920898 7.5 0.920898C9.57107 0.920898 11.25 2.59983 11.25 4.6709V5.9209H10.25V4.6709C10.25 3.15212 9.01878 1.9209 7.5 1.9209C5.98122 1.9209 4.75 3.15212 4.75 4.6709V5.9209H3.75V4.6709ZM5.25 5.9209V4.6709C5.25 3.42826 6.25736 2.4209 7.5 2.4209C8.74264 2.4209 9.75 3.42826 9.75 4.6709V5.9209H5.25ZM2.5 7.1709C2.5 6.75668 2.83579 6.4209 3.25 6.4209H11.75C12.1642 6.4209 12.5 6.75668 12.5 7.1709V8.6709H2.5V7.1709ZM0.5 9.4209C0.5 9.28283 0.611929 9.1709 0.75 9.1709H14.25C14.3881 9.1709 14.5 9.28283 14.5 9.4209V11.9209C14.5 12.059 14.3881 12.1709 14.25 12.1709H0.75C0.611929 12.1709 0.5 12.059 0.5 11.9209V9.4209Z" fill="#9B9B9B"/>
<path d="M1.042 11.3096C1.07879 11.3648 1.136 11.4031 1.20103 11.4161C1.26606 11.4291 1.33358 11.4157 1.38875 11.3789L1.75 11.1379V11.4209C1.75 11.559 1.86193 11.6709 2 11.6709C2.13807 11.6709 2.25 11.559 2.25 11.4209V11.1379L2.61125 11.3789C2.68556 11.4285 2.78067 11.4346 2.86076 11.3951C2.94084 11.3555 2.99373 11.2762 2.99951 11.1871C3.00528 11.0979 2.96306 11.0125 2.88875 10.9629L2.45 10.6709L2.888 10.3789C2.96231 10.3293 3.00453 10.2439 2.99876 10.1547C2.99298 10.0656 2.94009 9.98631 2.86001 9.94674C2.77992 9.90717 2.68481 9.91333 2.6105 9.9629L2.25 10.2039V9.9209C2.25 9.78283 2.13807 9.6709 2 9.6709C1.86193 9.6709 1.75 9.78283 1.75 9.9209V10.2039L1.38875 9.9629C1.27387 9.88627 1.11863 9.91727 1.042 10.0321C0.965367 10.147 0.996371 10.3023 1.11125 10.3789L1.55 10.6709L1.11125 10.9629C1.05607 10.9997 1.01778 11.0569 1.00479 11.1219C0.991807 11.187 1.00519 11.2545 1.042 11.3096Z" fill="#9B9B9B"/>
<path d="M3.792 11.3096C3.82879 11.3648 3.886 11.4031 3.95103 11.4161C4.01606 11.4291 4.08358 11.4157 4.13875 11.3789L4.5 11.1379V11.4209C4.5 11.559 4.61193 11.6709 4.75 11.6709C4.88807 11.6709 5 11.559 5 11.4209V11.1379L5.36125 11.3789C5.43556 11.4285 5.53067 11.4346 5.61076 11.3951C5.69084 11.3555 5.74373 11.2762 5.74951 11.1871C5.75528 11.0979 5.71306 11.0125 5.63875 10.9629L5.2 10.6709L5.638 10.3789C5.71231 10.3293 5.75453 10.2439 5.74876 10.1547C5.74298 10.0656 5.69009 9.98631 5.61001 9.94674C5.52992 9.90717 5.43481 9.91333 5.3605 9.9629L5 10.2039V9.9209C5 9.78283 4.88807 9.6709 4.75 9.6709C4.61193 9.6709 4.5 9.78283 4.5 9.9209V10.2039L4.13875 9.9629C4.02387 9.88627 3.86863 9.91727 3.792 10.0321C3.71537 10.147 3.74637 10.3023 3.86125 10.3789L4.3 10.6709L3.862 10.9629C3.8067 10.9996 3.76826 11.0567 3.75513 11.1218C3.742 11.1868 3.75526 11.2544 3.792 11.3096Z" fill="#9B9B9B"/>
<path d="M9.292 11.3096C9.32879 11.3648 9.386 11.4031 9.45103 11.4161C9.51606 11.4291 9.58358 11.4157 9.63875 11.3789L10 11.1379V11.4209C10 11.559 10.1119 11.6709 10.25 11.6709C10.3881 11.6709 10.5 11.559 10.5 11.4209V11.1379L10.8612 11.3789C10.9356 11.4285 11.0307 11.4346 11.1108 11.3951C11.1908 11.3555 11.2437 11.2762 11.2495 11.1871C11.2553 11.0979 11.2131 11.0125 11.1387 10.9629L10.7 10.6709L11.138 10.3789C11.2123 10.3293 11.2545 10.2439 11.2488 10.1547C11.243 10.0656 11.1901 9.98631 11.11 9.94674C11.0299 9.90717 10.9348 9.91333 10.8605 9.9629L10.5 10.2039V9.9209C10.5 9.78283 10.3881 9.6709 10.25 9.6709C10.1119 9.6709 10 9.78283 10 9.9209V10.2039L9.63875 9.9629C9.52387 9.88627 9.36863 9.91727 9.292 10.0321C9.21537 10.147 9.24637 10.3023 9.36125 10.3789L9.8 10.6709L9.362 10.9629C9.3067 10.9996 9.26826 11.0567 9.25513 11.1218C9.242 11.1868 9.25526 11.2544 9.292 11.3096Z" fill="#9B9B9B"/>
<path d="M6.542 11.3096C6.57879 11.3648 6.636 11.4031 6.70103 11.4161C6.76606 11.4291 6.83358 11.4157 6.88875 11.3789L7.25 11.1379V11.4209C7.25 11.559 7.36193 11.6709 7.5 11.6709C7.63807 11.6709 7.75 11.559 7.75 11.4209V11.1379L8.11125 11.3789C8.18556 11.4285 8.28067 11.4346 8.36075 11.3951C8.44084 11.3555 8.49373 11.2762 8.4995 11.1871C8.50528 11.0979 8.46306 11.0125 8.38875 10.9629L7.95 10.6709L8.388 10.3789C8.46231 10.3293 8.50453 10.2439 8.49876 10.1547C8.49298 10.0656 8.44009 9.98631 8.36001 9.94674C8.27992 9.90717 8.18481 9.91333 8.1105 9.9629L7.75 10.2039V9.9209C7.75 9.78283 7.63807 9.6709 7.5 9.6709C7.36193 9.6709 7.25 9.78283 7.25 9.9209V10.2039L6.88875 9.9629C6.77387 9.88627 6.61863 9.91727 6.542 10.0321C6.46537 10.147 6.49637 10.3023 6.61125 10.3789L7.05 10.6709L6.612 10.9629C6.5567 10.9996 6.51826 11.0567 6.50513 11.1218C6.492 11.1868 6.50526 11.2544 6.542 11.3096Z" fill="#9B9B9B"/>
<path d="M4 6.9209H3.25C3.11193 6.9209 3 7.03283 3 7.1709V7.9209C3 8.05897 3.11193 8.1709 3.25 8.1709C3.38807 8.1709 3.5 8.05897 3.5 7.9209V7.4209H4C4.13807 7.4209 4.25 7.30897 4.25 7.1709C4.25 7.03283 4.13807 6.9209 4 6.9209Z" fill="#9B9B9B"/>
<path d="M12.25 11.6709H13.75C13.8881 11.6709 14 11.559 14 11.4209C14 11.2828 13.8881 11.1709 13.75 11.1709H12.25C12.1119 11.1709 12 11.2828 12 11.4209C12 11.559 12.1119 11.6709 12.25 11.6709Z" fill="#9B9B9B"/>
</g>
<defs>
<clipPath id="clip0_7_41">
<rect width="15" height="15" fill="white" transform="translate(0 0.420898)"/>
</clipPath>
</defs>
</svg>
